<?xml version="1.0" standalone="no"?>
<!DOCTYPE svg PUBLIC "-//W3C//DTD SVG 20010904//EN"
 "http://www.w3.org/TR/2001/REC-SVG-20010904/DTD/svg10.dtd">
<svg version="1.0" xmlns="http://www.w3.org/2000/svg"
 width="512.000000pt" height="512.000000pt" viewBox="0 0 512.000000 512.000000"
 preserveAspectRatio="xMidYMid meet">
<metadata>
Created by potrace 1.11, written by Peter Selinger 2001-2013
</metadata>
<g transform="translate(0.000000,512.000000) scale(0.100000,-0.100000)"
fill="#000000" stroke="none">
<path d="M2497 5044 c-1 -1 -54 -5 -117 -9 -62 -3 -116 -8 -120 -9 -3 -2 -29
-7 -59 -10 -123 -15 -280 -52 -428 -102 -623 -210 -1144 -662 -1432 -1244 -37
-75 -71 -146 -74 -156 -3 -10 -13 -35 -20 -54 -51 -124 -118 -368 -133 -475
-3 -27 -8 -52 -9 -55 -2 -3 -6 -37 -10 -75 -4 -39 -8 -81 -11 -95 -6 -33 -5
-343 1 -400 36 -347 116 -633 253 -907 453 -900 1394 -1439 2392 -1372 116 8
135 11 325 45 116 20 368 99 485 151 212 95 421 221 575 347 502 412 823 981
904 1604 28 214 30 456 6 632 -29 211 -81 420 -150 600 -20 52 -133 286 -167
345 -137 240 -368 509 -583 680 -27 22 -52 43 -55 46 -3 4 -61 44 -130 90
-300 201 -638 335 -980 389 -41 6 -86 13 -100 16 -45 7 -358 22 -363 18z"/>
</g>
</svg>
